<svg width="45" height="51" viewBox="0 0 45 51" fill="none" xmlns="http://www.w3.org/2000/svg">
<path d="M24.25 40.2727V37.8182C24.25 35.9545 24.6439 34.2424 25.4318 32.6818C26.2348 31.1061 27.3939 29.8485 28.9091 28.9091C30.4394 27.9545 32.303 27.4773 34.5 27.4773C36.7273 27.4773 38.5985 27.947 40.1136 28.8864C41.6439 29.8258 42.7955 31.0833 43.5682 32.6591C44.3561 34.2197 44.75 35.9394 44.75 37.8182V40.2727C44.75 42.1364 44.3561 43.8561 43.5682 45.4318C42.7803 46.9924 41.6212 48.2424 40.0909 49.1818C38.5606 50.1364 36.697 50.6136 34.5 50.6136C32.2727 50.6136 30.4015 50.1364 28.8864 49.1818C27.3712 48.2424 26.2197 46.9924 25.4318 45.4318C24.6439 43.8561 24.25 42.1364 24.25 40.2727ZM30.8636 37.8182V40.2727C30.8636 41.3485 31.1212 42.3636 31.6364 43.3182C32.1667 44.2727 33.1212 44.75 34.5 44.75C35.8788 44.75 36.8182 44.2803 37.3182 43.3409C37.8333 42.4015 38.0909 41.3788 38.0909 40.2727V37.8182C38.0909 36.7121 37.8485 35.6818 37.3636 34.7273C36.8788 33.7727 35.9242 33.2955 34.5 33.2955C33.1364 33.2955 32.1894 33.7727 31.6591 34.7273C31.1288 35.6818 30.8636 36.7121 30.8636 37.8182ZM0.363636 13.6364V11.1818C0.363636 9.30303 0.765152 7.58333 1.56818 6.02272C2.37121 4.44697 3.5303 3.18939 5.04545 2.25C6.57576 1.31061 8.42424 0.840908 10.5909 0.840908C12.8333 0.840908 14.7121 1.31061 16.2273 2.25C17.7424 3.18939 18.8939 4.44697 19.6818 6.02272C20.4697 7.58333 20.8636 9.30303 20.8636 11.1818V13.6364C20.8636 15.5152 20.4621 17.2348 19.6591 18.7955C18.8712 20.3561 17.7121 21.6061 16.1818 22.5455C14.6667 23.4697 12.803 23.9318 10.5909 23.9318C8.37879 23.9318 6.50758 23.4621 4.97727 22.5227C3.46212 21.5682 2.31061 20.3182 1.52273 18.7727C0.75 17.2121 0.363636 15.5 0.363636 13.6364ZM7.02273 11.1818V13.6364C7.02273 14.7424 7.2803 15.7651 7.79545 16.7045C8.32576 17.6439 9.25758 18.1136 10.5909 18.1136C11.9848 18.1136 12.9318 17.6439 13.4318 16.7045C13.947 15.7651 14.2045 14.7424 14.2045 13.6364V11.1818C14.2045 10.0758 13.9621 9.04545 13.4773 8.09091C12.9924 7.13636 12.0303 6.65909 10.5909 6.65909C9.24242 6.65909 8.31061 7.14394 7.79545 8.11364C7.2803 9.08333 7.02273 10.1061 7.02273 11.1818ZM3.36364 49L35.3636 2.45454H41.3182L9.31818 49H3.36364Z" fill="#575757"/>
</svg>
