<svg width="46" height="46" viewBox="0 0 46 46" fill="none" xmlns="http://www.w3.org/2000/svg">
<g clip-path="url(#clip0_30_2338)">
<path d="M0.566424 40.0698C0.486646 40.0698 0.486646 40.0698 0.486646 40.0698C0.239334 40.0698 0 40.3102 0 40.5507C0 40.7911 0.239334 41.0315 0.486646 41.0315C0.486646 41.0315 0.486646 41.0315 0.566424 41.0315C0.566424 41.0315 0.566424 41.0315 0.646202 41.0315C0.885536 41.0315 1.13285 40.7911 1.13285 40.5507C1.13285 40.2301 0.885536 40.0698 0.566424 40.0698Z" fill="#675DC9"/>
<path d="M25.5848 36.0629C25.6646 35.9026 25.7443 35.7423 25.9916 35.6622C27.5234 35.3416 28.8956 34.7807 30.188 33.8991C30.3475 33.819 30.5948 33.819 30.7544 33.8991L35.1023 36.6239L37.1207 34.6204L34.3763 30.2929C34.2965 30.1326 34.2965 29.8922 34.3763 29.7319C35.1821 28.4496 35.8283 27.0071 36.1554 25.5646C36.2351 25.4044 36.3149 25.2441 36.5622 25.1639L41.5643 24.042V21.2371L36.5622 20.1152C36.4027 20.035 36.2431 19.9549 36.1554 19.7145C35.8363 18.2719 35.2698 16.8294 34.3763 15.5472C34.2965 15.3869 34.2965 15.1465 34.3763 14.9862L37.1207 10.6587L35.1023 8.65522L30.7464 11.38C30.5869 11.4601 30.3396 11.4601 30.18 11.38C28.8876 10.5786 27.5154 10.0176 25.9837 9.6169C25.8241 9.53676 25.6646 9.45662 25.5768 9.2162L24.444 4.24756H21.6198L20.487 9.2162C20.4072 9.37648 20.3274 9.53676 20.0801 9.6169C18.5484 9.93745 17.1762 10.5786 15.8838 11.38C15.7242 11.4601 15.4769 11.4601 15.3173 11.38L10.9615 8.65522L8.94309 10.6587L11.6874 14.9862C11.7672 15.1465 11.7672 15.3869 11.6874 15.5472C10.8817 16.8294 10.2355 18.2719 9.9084 19.7145C9.82862 19.8747 9.74884 20.035 9.50153 20.1152L4.49945 21.2371V24.2023L9.50153 25.3242C9.66109 25.4044 9.82064 25.4845 9.9084 25.7249C10.2275 27.2476 10.7939 28.6099 11.6874 29.8922C11.7672 30.0524 11.7672 30.2929 11.6874 30.4531L8.94309 34.7807L10.9615 36.7841L15.3173 34.0594C15.4769 33.9793 15.7242 33.9793 15.8838 34.0594C17.1762 34.8608 18.6281 35.5019 20.0801 35.8225C20.2397 35.9026 20.3992 35.9827 20.487 36.2232L21.6198 41.1918H24.444L25.5848 36.0629ZM14.2005 22.8399C14.2005 17.9514 18.1574 14.0246 23.0798 14.0246C28.0021 14.0246 31.959 17.9514 31.959 22.8399C31.959 27.7284 28.0021 31.6552 23.0798 31.6552C18.2372 31.6552 14.2005 27.6483 14.2005 22.8399Z" fill="#675DC9"/>
<path d="M23.0798 14.9861C18.7239 14.9861 15.1738 18.5122 15.1738 22.8397C15.1738 27.1673 18.7239 30.6133 23.0798 30.6133C27.4356 30.6133 30.906 27.0871 30.906 22.8397C30.9937 18.5122 27.4356 14.9861 23.0798 14.9861ZM19.3701 23.4809H17.3517V21.4774H19.3701V23.4809ZM23.5664 26.8467V28.1289H22.3538V26.9268C21.548 26.9268 20.7423 26.6864 20.2556 26.3659L20.6625 24.9234C21.1491 25.2439 21.9549 25.4843 22.7607 25.4843C23.4866 25.4843 23.9733 25.2439 23.9733 24.6829C23.9733 24.2021 23.5664 23.8816 22.6809 23.6411C21.3885 23.1603 20.4232 22.5993 20.4232 21.3972C20.4232 20.2753 21.2289 19.4739 22.5213 19.2335V18.0314H23.7339V19.1533C24.5397 19.1533 25.1061 19.3937 25.513 19.554L25.1061 20.9965C24.787 20.8363 24.2206 20.5958 23.3271 20.5958C22.5213 20.5958 22.274 20.9164 22.274 21.3171C22.274 21.7178 22.6809 21.9582 23.726 22.3589C25.1779 22.8397 25.8241 23.561 25.8241 24.6829C25.7444 25.7248 25.0184 26.6063 23.5664 26.8467ZM28.4887 23.4809H26.4703V21.4774H28.4887V23.4809Z" fill="#675DC9"/>
<path d="M0.486646 38.0662C0.72598 38.0662 0.973292 37.8258 0.973292 37.5853V22.8397C0.973292 10.8188 10.8179 0.961651 23.008 0.961651C23.2473 0.961651 23.4946 0.721233 23.4946 0.480814C23.4946 0.240396 23.2553 -2.18916e-05 23.008 -2.18916e-05C10.3313 -0.0801613 0 10.1777 0 22.8397V37.5052C0 37.8258 0.239334 38.0662 0.486646 38.0662Z" fill="#675DC9"/>
<path d="M45.5133 7.3728C45.274 7.3728 45.0267 7.61322 45.0267 7.85364V23.2404C45.0267 35.2613 35.1821 45.0383 23.0718 45.0383C22.8325 45.0383 22.5851 45.2787 22.5851 45.5191C22.5851 45.7596 22.8245 46 23.0718 46C29.2067 46 34.9348 43.5958 39.2907 39.2683C43.5668 35.0209 45.992 29.2509 45.992 23.2404V7.85364C46 7.61322 45.7607 7.3728 45.5133 7.3728Z" fill="#675DC9"/>
<path d="M45.5133 5.36939C45.6729 5.36939 45.7527 5.28925 45.8324 5.20911C45.9122 5.12897 45.992 4.96869 45.992 4.88855C45.992 4.72827 45.9122 4.64813 45.8324 4.56799C45.7527 4.48785 45.5931 4.40771 45.5133 4.40771C45.3538 4.40771 45.274 4.48785 45.1942 4.56799C45.1144 4.64813 45.0347 4.80841 45.0347 4.88855C45.0347 5.04883 45.1144 5.12897 45.1942 5.20911C45.274 5.28925 45.3538 5.36939 45.5133 5.36939Z" fill="#675DC9"/>
</g>
<defs>
<clipPath id="clip0_30_2338">
<rect width="46" height="46" rx="10" fill="white"/>
</clipPath>
</defs>
</svg>
