<svg width="154" height="36" viewBox="0 0 154 36" fill="none" xmlns="http://www.w3.org/2000/svg">
<path d="M0.855985 28V1.18H5.10398V12.988H17.524V1.18H21.736V28H17.524V16.768H5.10398V28H0.855985ZM33.8455 28.432C32.3815 28.432 31.0975 28.108 29.9935 27.46C28.8895 26.788 28.0255 25.864 27.4015 24.688C26.8015 23.488 26.5015 22.108 26.5015 20.548V8.524H30.5695V20.188C30.5695 21.076 30.7495 21.856 31.1095 22.528C31.4695 23.2 31.9735 23.728 32.6215 24.112C33.2695 24.472 34.0135 24.652 34.8535 24.652C35.7175 24.652 36.4735 24.46 37.1215 24.076C37.7695 23.692 38.2735 23.152 38.6335 22.456C39.0175 21.76 39.2095 20.944 39.2095 20.008V8.524H43.2415V28H39.3895V24.184L39.8215 24.688C39.3655 25.888 38.6095 26.812 37.5535 27.46C36.4975 28.108 35.2615 28.432 33.8455 28.432ZM58.3952 28.432C56.8832 28.432 55.5032 28.12 54.2552 27.496C53.0312 26.872 52.0832 25.972 51.4112 24.796L51.8792 24.04V28H47.9912V0.747999H52.0592V12.556L51.4112 11.62C52.1312 10.516 53.0912 9.652 54.2912 9.028C55.4912 8.404 56.8592 8.092 58.3952 8.092C60.2432 8.092 61.8992 8.536 63.3632 9.424C64.8512 10.312 66.0152 11.524 66.8552 13.06C67.7192 14.596 68.1512 16.324 68.1512 18.244C68.1512 20.164 67.7192 21.892 66.8552 23.428C66.0152 24.964 64.8632 26.188 63.3992 27.1C61.9352 27.988 60.2672 28.432 58.3952 28.432ZM57.9992 24.652C59.1512 24.652 60.1712 24.376 61.0592 23.824C61.9472 23.272 62.6432 22.516 63.1472 21.556C63.6752 20.572 63.9392 19.468 63.9392 18.244C63.9392 17.02 63.6752 15.928 63.1472 14.968C62.6432 14.008 61.9472 13.252 61.0592 12.7C60.1712 12.148 59.1512 11.872 57.9992 11.872C56.8712 11.872 55.8512 12.148 54.9392 12.7C54.0512 13.252 53.3432 14.008 52.8152 14.968C52.3112 15.928 52.0592 17.02 52.0592 18.244C52.0592 19.468 52.3112 20.572 52.8152 21.556C53.3432 22.516 54.0512 23.272 54.9392 23.824C55.8512 24.376 56.8712 24.652 57.9992 24.652ZM81.9004 28.432C80.2204 28.432 78.6604 28.12 77.2204 27.496C75.7804 26.848 74.5564 25.972 73.5484 24.868C72.5404 23.764 71.7964 22.492 71.3164 21.052L74.9164 19.54C75.5644 21.196 76.5124 22.468 77.7604 23.356C79.0084 24.244 80.4484 24.688 82.0804 24.688C83.0404 24.688 83.8804 24.544 84.6004 24.256C85.3204 23.944 85.8724 23.512 86.2564 22.96C86.6644 22.408 86.8684 21.772 86.8684 21.052C86.8684 20.068 86.5924 19.288 86.0404 18.712C85.4884 18.136 84.6724 17.68 83.5924 17.344L78.5524 15.76C76.5364 15.136 75.0004 14.188 73.9444 12.916C72.8884 11.62 72.3604 10.108 72.3604 8.38C72.3604 6.868 72.7324 5.548 73.4764 4.42C74.2204 3.268 75.2404 2.368 76.5364 1.72C77.8564 1.072 79.3564 0.747999 81.0364 0.747999C82.6444 0.747999 84.1084 1.036 85.4284 1.612C86.7484 2.164 87.8764 2.932 88.8124 3.916C89.7724 4.9 90.4684 6.04 90.9004 7.336L87.3724 8.884C86.8444 7.468 86.0164 6.376 84.8884 5.608C83.7844 4.84 82.5004 4.456 81.0364 4.456C80.1484 4.456 79.3684 4.612 78.6964 4.924C78.0244 5.212 77.4964 5.644 77.1124 6.22C76.7524 6.772 76.5724 7.42 76.5724 8.164C76.5724 9.028 76.8484 9.796 77.4004 10.468C77.9524 11.14 78.7924 11.644 79.9204 11.98L84.6004 13.456C86.7364 14.104 88.3444 15.04 89.4244 16.264C90.5044 17.464 91.0444 18.964 91.0444 20.764C91.0444 22.252 90.6484 23.572 89.8564 24.724C89.0884 25.876 88.0204 26.788 86.6524 27.46C85.2844 28.108 83.7004 28.432 81.9004 28.432ZM95.417 35.2V8.524H99.305V12.556L98.837 11.62C99.557 10.516 100.517 9.652 101.717 9.028C102.917 8.404 104.285 8.092 105.821 8.092C107.669 8.092 109.325 8.536 110.789 9.424C112.277 10.312 113.441 11.524 114.281 13.06C115.145 14.596 115.577 16.324 115.577 18.244C115.577 20.164 115.145 21.892 114.281 23.428C113.441 24.964 112.289 26.188 110.825 27.1C109.361 27.988 107.693 28.432 105.821 28.432C104.309 28.432 102.929 28.12 101.681 27.496C100.457 26.872 99.509 25.972 98.837 24.796L99.485 24.04V35.2H95.417ZM105.425 24.652C106.577 24.652 107.597 24.376 108.485 23.824C109.373 23.272 110.069 22.516 110.573 21.556C111.101 20.572 111.365 19.468 111.365 18.244C111.365 17.02 111.101 15.928 110.573 14.968C110.069 14.008 109.373 13.252 108.485 12.7C107.597 12.148 106.577 11.872 105.425 11.872C104.297 11.872 103.277 12.148 102.365 12.7C101.477 13.252 100.769 14.008 100.241 14.968C99.737 15.928 99.485 17.02 99.485 18.244C99.485 19.468 99.737 20.572 100.241 21.556C100.769 22.516 101.477 23.272 102.365 23.824C103.277 24.376 104.297 24.652 105.425 24.652ZM128.93 28.432C127.058 28.432 125.342 27.988 123.782 27.1C122.246 26.212 121.022 25 120.11 23.464C119.198 21.928 118.742 20.188 118.742 18.244C118.742 16.276 119.198 14.536 120.11 13.024C121.022 11.488 122.246 10.288 123.782 9.424C125.318 8.536 127.034 8.092 128.93 8.092C130.85 8.092 132.566 8.536 134.078 9.424C135.614 10.288 136.826 11.488 137.714 13.024C138.626 14.536 139.082 16.276 139.082 18.244C139.082 20.212 138.626 21.964 137.714 23.5C136.802 25.036 135.578 26.248 134.042 27.136C132.506 28 130.802 28.432 128.93 28.432ZM128.93 24.652C130.082 24.652 131.102 24.376 131.99 23.824C132.878 23.272 133.574 22.516 134.078 21.556C134.606 20.572 134.87 19.468 134.87 18.244C134.87 17.02 134.606 15.928 134.078 14.968C133.574 14.008 132.878 13.252 131.99 12.7C131.102 12.148 130.082 11.872 128.93 11.872C127.802 11.872 126.782 12.148 125.87 12.7C124.982 13.252 124.274 14.008 123.746 14.968C123.242 15.928 122.99 17.02 122.99 18.244C122.99 19.468 123.242 20.572 123.746 21.556C124.274 22.516 124.982 23.272 125.87 23.824C126.782 24.376 127.802 24.652 128.93 24.652ZM151.126 28.216C149.086 28.216 147.502 27.64 146.374 26.488C145.246 25.336 144.682 23.716 144.682 21.628V12.196H141.262V8.524H141.802C142.714 8.524 143.422 8.26 143.926 7.732C144.43 7.204 144.682 6.484 144.682 5.572V4.06H148.75V8.524H153.178V12.196H148.75V21.448C148.75 22.12 148.858 22.696 149.074 23.176C149.29 23.632 149.638 23.992 150.118 24.256C150.598 24.496 151.222 24.616 151.99 24.616C152.182 24.616 152.398 24.604 152.638 24.58C152.878 24.556 153.106 24.532 153.322 24.508V28C152.986 28.048 152.614 28.096 152.206 28.144C151.798 28.192 151.438 28.216 151.126 28.216Z" fill="#0D0C54"/>
</svg>
