<svg width="167" height="38" viewBox="0 0 167 38" fill="none" xmlns="http://www.w3.org/2000/svg">
<path d="M68.208 33.432C66.888 33.432 65.724 33.204 64.716 32.748C63.732 32.268 62.964 31.62 62.412 30.804C61.86 29.964 61.584 28.98 61.584 27.852C61.584 26.796 61.812 25.848 62.268 25.008C62.748 24.168 63.48 23.46 64.464 22.884C65.448 22.308 66.684 21.9 68.172 21.66L74.94 20.544V23.748L68.964 24.792C67.884 24.984 67.092 25.332 66.588 25.836C66.084 26.316 65.832 26.94 65.832 27.708C65.832 28.452 66.108 29.064 66.66 29.544C67.236 30 67.968 30.228 68.856 30.228C69.96 30.228 70.92 29.988 71.736 29.508C72.576 29.028 73.224 28.392 73.68 27.6C74.136 26.784 74.364 25.884 74.364 24.9V19.896C74.364 18.936 74.004 18.156 73.284 17.556C72.588 16.932 71.652 16.62 70.476 16.62C69.396 16.62 68.448 16.908 67.632 17.484C66.84 18.036 66.252 18.756 65.868 19.644L62.484 17.952C62.844 16.992 63.432 16.152 64.248 15.432C65.064 14.688 66.012 14.112 67.092 13.704C68.196 13.296 69.36 13.092 70.584 13.092C72.12 13.092 73.476 13.38 74.652 13.956C75.852 14.532 76.776 15.336 77.424 16.368C78.096 17.376 78.432 18.552 78.432 19.896V33H74.544V29.472L75.372 29.58C74.916 30.372 74.328 31.056 73.608 31.632C72.912 32.208 72.108 32.652 71.196 32.964C70.308 33.276 69.312 33.432 68.208 33.432ZM90.3885 33.432C88.3965 33.432 86.6445 32.94 85.1325 31.956C83.6445 30.972 82.6005 29.652 82.0005 27.996L85.1325 26.52C85.6605 27.624 86.3805 28.5 87.2925 29.148C88.2285 29.796 89.2605 30.12 90.3885 30.12C91.3485 30.12 92.1285 29.904 92.7285 29.472C93.3285 29.04 93.6285 28.452 93.6285 27.708C93.6285 27.228 93.4965 26.844 93.2325 26.556C92.9685 26.244 92.6325 25.992 92.2245 25.8C91.8405 25.608 91.4445 25.464 91.0365 25.368L87.9765 24.504C86.2965 24.024 85.0365 23.304 84.1965 22.344C83.3805 21.36 82.9725 20.22 82.9725 18.924C82.9725 17.748 83.2725 16.728 83.8725 15.864C84.4725 14.976 85.3005 14.292 86.3565 13.812C87.4125 13.332 88.6005 13.092 89.9205 13.092C91.6965 13.092 93.2805 13.536 94.6725 14.424C96.0645 15.288 97.0485 16.5 97.6245 18.06L94.4925 19.536C94.1085 18.6 93.4965 17.856 92.6565 17.304C91.8405 16.752 90.9165 16.476 89.8845 16.476C88.9965 16.476 88.2885 16.692 87.7605 17.124C87.2325 17.532 86.9685 18.072 86.9685 18.744C86.9685 19.2 87.0885 19.584 87.3285 19.896C87.5685 20.184 87.8805 20.424 88.2645 20.616C88.6485 20.784 89.0445 20.928 89.4525 21.048L92.6205 21.984C94.2285 22.44 95.4645 23.16 96.3285 24.144C97.1925 25.104 97.6245 26.256 97.6245 27.6C97.6245 28.752 97.3125 29.772 96.6885 30.66C96.0885 31.524 95.2485 32.208 94.1685 32.712C93.0885 33.192 91.8285 33.432 90.3885 33.432ZM107.442 33.432C106.122 33.432 104.958 33.204 103.95 32.748C102.966 32.268 102.198 31.62 101.646 30.804C101.094 29.964 100.818 28.98 100.818 27.852C100.818 26.796 101.046 25.848 101.502 25.008C101.982 24.168 102.714 23.46 103.698 22.884C104.682 22.308 105.918 21.9 107.406 21.66L114.174 20.544V23.748L108.198 24.792C107.118 24.984 106.326 25.332 105.822 25.836C105.318 26.316 105.066 26.94 105.066 27.708C105.066 28.452 105.342 29.064 105.894 29.544C106.47 30 107.202 30.228 108.09 30.228C109.194 30.228 110.154 29.988 110.97 29.508C111.81 29.028 112.458 28.392 112.914 27.6C113.37 26.784 113.598 25.884 113.598 24.9V19.896C113.598 18.936 113.238 18.156 112.518 17.556C111.822 16.932 110.886 16.62 109.71 16.62C108.63 16.62 107.682 16.908 106.866 17.484C106.074 18.036 105.486 18.756 105.102 19.644L101.718 17.952C102.078 16.992 102.666 16.152 103.482 15.432C104.298 14.688 105.246 14.112 106.326 13.704C107.43 13.296 108.594 13.092 109.818 13.092C111.354 13.092 112.71 13.38 113.886 13.956C115.086 14.532 116.01 15.336 116.658 16.368C117.33 17.376 117.666 18.552 117.666 19.896V33H113.778V29.472L114.606 29.58C114.15 30.372 113.562 31.056 112.842 31.632C112.146 32.208 111.342 32.652 110.43 32.964C109.542 33.276 108.546 33.432 107.442 33.432ZM122.423 33V13.524H126.311V17.34L125.843 16.836C126.323 15.612 127.091 14.688 128.147 14.064C129.203 13.416 130.427 13.092 131.819 13.092C133.259 13.092 134.531 13.404 135.635 14.028C136.739 14.652 137.603 15.516 138.227 16.62C138.851 17.724 139.163 18.996 139.163 20.436V33H135.131V21.516C135.131 20.532 134.951 19.704 134.591 19.032C134.231 18.336 133.715 17.808 133.043 17.448C132.395 17.064 131.651 16.872 130.811 16.872C129.971 16.872 129.215 17.064 128.543 17.448C127.895 17.808 127.391 18.336 127.031 19.032C126.671 19.728 126.491 20.556 126.491 21.516V33H122.423ZM149.349 33.432C148.029 33.432 146.865 33.204 145.857 32.748C144.873 32.268 144.105 31.62 143.553 30.804C143.001 29.964 142.725 28.98 142.725 27.852C142.725 26.796 142.953 25.848 143.409 25.008C143.889 24.168 144.621 23.46 145.605 22.884C146.589 22.308 147.825 21.9 149.313 21.66L156.081 20.544V23.748L150.105 24.792C149.025 24.984 148.233 25.332 147.729 25.836C147.225 26.316 146.973 26.94 146.973 27.708C146.973 28.452 147.249 29.064 147.801 29.544C148.377 30 149.109 30.228 149.997 30.228C151.101 30.228 152.061 29.988 152.877 29.508C153.717 29.028 154.365 28.392 154.821 27.6C155.277 26.784 155.505 25.884 155.505 24.9V19.896C155.505 18.936 155.145 18.156 154.425 17.556C153.729 16.932 152.793 16.62 151.617 16.62C150.537 16.62 149.589 16.908 148.773 17.484C147.981 18.036 147.393 18.756 147.009 19.644L143.625 17.952C143.985 16.992 144.573 16.152 145.389 15.432C146.205 14.688 147.153 14.112 148.233 13.704C149.337 13.296 150.501 13.092 151.725 13.092C153.261 13.092 154.617 13.38 155.793 13.956C156.993 14.532 157.917 15.336 158.565 16.368C159.237 17.376 159.573 18.552 159.573 19.896V33H155.685V29.472L156.513 29.58C156.057 30.372 155.469 31.056 154.749 31.632C154.053 32.208 153.249 32.652 152.337 32.964C151.449 33.276 150.453 33.432 149.349 33.432Z" fill="#0D0C54"/>
<circle cx="22.1915" cy="9" r="9" fill="#EA8F95"/>
<circle cx="9" cy="28.1277" r="9" fill="#EA8F95"/>
<circle cx="34.7234" cy="28.1277" r="9" fill="#EA8F95"/>
</svg>
