<svg width="130" height="37" viewBox="0 0 130 37" fill="none" xmlns="http://www.w3.org/2000/svg">
<path d="M0.621094 1.87891H22.0488V5.9043H10.7988L10.7812 13.4805H19.043V17.5059H10.7812V28H0.621094V1.87891ZM30.2754 7.67969C29.4082 7.67969 28.6582 7.58594 28.0254 7.39844C27.4043 7.21094 26.8945 6.95313 26.4961 6.625C26.0977 6.28516 25.8047 5.89844 25.6172 5.46484C25.4297 5.01953 25.3359 4.53906 25.3359 4.02344C25.3359 3.51953 25.4297 3.04492 25.6172 2.59961C25.8047 2.1543 26.0977 1.76758 26.4961 1.43945C26.8945 1.09961 27.4043 0.835938 28.0254 0.648438C28.6582 0.460937 29.4082 0.367188 30.2754 0.367188C31.1543 0.367188 31.9043 0.460937 32.5254 0.648438C33.1465 0.835938 33.6562 1.09961 34.0547 1.43945C34.4648 1.76758 34.7637 2.1543 34.9512 2.59961C35.1387 3.04492 35.2324 3.51953 35.2324 4.02344C35.2324 4.53906 35.1387 5.01953 34.9512 5.46484C34.7637 5.89844 34.4648 6.28516 34.0547 6.625C33.6562 6.95313 33.1465 7.21094 32.5254 7.39844C31.9043 7.58594 31.1543 7.67969 30.2754 7.67969ZM25.5117 10.5801H35.0566V28H25.5117V10.5801ZM39.6797 26.4355C39.6797 25.5449 39.9023 24.6836 40.3477 23.8516C40.793 23.0195 41.4141 22.2695 42.2109 21.6016C41.1094 21.0039 40.2715 20.2891 39.6973 19.457C39.1348 18.6133 38.8535 17.6641 38.8535 16.6094C38.8535 15.6133 39.1113 14.7227 39.627 13.9375C40.1543 13.1406 40.9102 12.4727 41.8945 11.9336C42.8789 11.3828 44.0859 10.9668 45.5156 10.6855C46.9453 10.3926 48.5684 10.2461 50.3848 10.2461C51.0059 10.2461 51.6094 10.2637 52.1953 10.2988V8.03125C52.1953 7.22266 52.3008 6.47852 52.5117 5.79883C52.7344 5.11914 53.0625 4.5332 53.4961 4.04102C53.9297 3.54883 54.4746 3.16797 55.1309 2.89844C55.7988 2.61719 56.5781 2.47656 57.4688 2.47656C58.2891 2.47656 59.0215 2.59375 59.666 2.82812C60.3223 3.05078 60.873 3.36133 61.3184 3.75977C61.7754 4.14648 62.1211 4.60352 62.3555 5.13086C62.5898 5.6582 62.707 6.21484 62.707 6.80078C62.707 7.375 62.6016 7.89648 62.3906 8.36523C62.1914 8.83398 61.9277 9.23828 61.5996 9.57812C61.2715 9.91797 60.9082 10.1816 60.5098 10.3691C60.123 10.5566 59.7363 10.6504 59.3496 10.6504L55.2363 5.11328L55.2188 5.13086L55.1836 10.668C57.3516 11.0898 59.0156 11.8105 60.1758 12.8301C61.3359 13.8379 61.916 15.0977 61.916 16.6094C61.916 17.6055 61.6523 18.5137 61.125 19.334C60.6094 20.1426 59.8594 20.8398 58.875 21.4258C57.8906 22 56.6836 22.4453 55.2539 22.7617C53.8242 23.0781 52.2012 23.2363 50.3848 23.2363C49.1074 23.2363 47.9238 23.1602 46.834 23.0078C45.7559 22.8555 44.7773 22.627 43.8984 22.3223C43.8047 22.5449 43.7578 22.8027 43.7578 23.0957C43.7578 23.4004 43.834 23.6758 43.9863 23.9219C44.1504 24.1562 44.4668 24.3555 44.9355 24.5195C45.416 24.6836 46.084 24.8066 46.9395 24.8887C47.8066 24.9707 48.9375 25.0117 50.332 25.0117H54.9023C56.2852 25.0117 57.4688 25.1523 58.4531 25.4336C59.4492 25.7031 60.2637 26.0781 60.8965 26.5586C61.541 27.0391 62.0098 27.5957 62.3027 28.2285C62.6074 28.873 62.7598 29.5527 62.7598 30.2676C62.7598 31.2051 62.5137 32.0664 62.0215 32.8516C61.5293 33.6367 60.7793 34.3105 59.7715 34.873C58.7754 35.4473 57.5156 35.8926 55.9922 36.209C54.4688 36.5254 52.6758 36.6836 50.6133 36.6836C49.4414 36.6836 48.3047 36.6309 47.2031 36.5254C46.1133 36.4316 45.0879 36.291 44.127 36.1035C43.166 35.9277 42.2812 35.7109 41.4727 35.4531C40.6641 35.207 39.9551 34.9375 39.3457 34.6445L40.7695 31.9902C41.5078 32.3301 42.2461 32.6113 42.9844 32.834C43.7227 33.0684 44.4727 33.2559 45.2344 33.3965C45.9961 33.5371 46.7754 33.6367 47.5723 33.6953C48.3809 33.7539 49.2188 33.7832 50.0859 33.7832C51.0703 33.7832 51.8613 33.7422 52.459 33.6602C53.0684 33.5781 53.5312 33.4727 53.8477 33.3438C54.1758 33.2148 54.3926 33.0625 54.498 32.8867C54.6152 32.7227 54.6738 32.5527 54.6738 32.377C54.6738 32.0723 54.5039 31.8203 54.1641 31.6211C53.8359 31.4336 53.3086 31.334 52.582 31.3223L47.0801 31.2695C45.8262 31.2578 44.7363 31.1289 43.8105 30.8828C42.8848 30.6484 42.1113 30.3145 41.4902 29.8809C40.8809 29.459 40.4238 28.9551 40.1191 28.3691C39.8262 27.7832 39.6797 27.1387 39.6797 26.4355ZM50.3848 20.0371C50.6543 20.0371 50.8945 19.9844 51.1055 19.8789C51.3164 19.7734 51.4922 19.5918 51.6328 19.334C51.7852 19.0762 51.8965 18.7305 51.9668 18.2969C52.0488 17.8516 52.0898 17.2949 52.0898 16.627C52.0898 16.0059 52.0547 15.4902 51.9844 15.0801C51.9141 14.6699 51.8086 14.3477 51.668 14.1133C51.5273 13.8672 51.3457 13.6973 51.123 13.6035C50.9121 13.5098 50.666 13.4629 50.3848 13.4629C50.1035 13.4629 49.8516 13.5098 49.6289 13.6035C49.418 13.6973 49.2422 13.8672 49.1016 14.1133C48.9609 14.3477 48.8555 14.6699 48.7852 15.0801C48.7148 15.4902 48.6797 16.0117 48.6797 16.6445C48.6797 17.3008 48.7148 17.8516 48.7852 18.2969C48.8672 18.7305 48.9785 19.0762 49.1191 19.334C49.2715 19.5918 49.4531 19.7734 49.6641 19.8789C49.875 19.9844 50.1152 20.0371 50.3848 20.0371ZM66.1172 10.5801H74.5371L75.3809 13.1113C76.623 12.1621 77.8828 11.4473 79.1602 10.9668C80.4492 10.4863 81.8027 10.2461 83.2207 10.2461C84.2871 10.2461 85.2539 10.4805 86.1211 10.9492C86.9883 11.418 87.668 12.1621 88.1602 13.1816C88.6992 12.7949 89.2793 12.4258 89.9004 12.0742C90.5215 11.7227 91.1719 11.4121 91.8516 11.1426C92.543 10.8613 93.2578 10.6445 93.9961 10.4922C94.7344 10.3281 95.502 10.2461 96.2988 10.2461C97.1074 10.2461 97.8633 10.3809 98.5664 10.6504C99.2695 10.9199 99.8789 11.3359 100.395 11.8984C100.91 12.4609 101.314 13.1875 101.607 14.0781C101.9 14.957 102.047 16.0117 102.047 17.2422V28H92.502V16.6445C92.502 16.0352 92.3613 15.5898 92.0801 15.3086C91.8105 15.0273 91.418 14.8867 90.9023 14.8867C90.6328 14.8867 90.3281 14.9512 89.9883 15.0801C89.6484 15.1973 89.3027 15.373 88.9512 15.6074V28H79.4062V16.6445C79.4062 16.0352 79.2715 15.5898 79.002 15.3086C78.7324 15.0273 78.3398 14.8867 77.8242 14.8867C77.4844 14.8867 77.1094 14.957 76.6992 15.0977C76.2891 15.2383 75.9434 15.4609 75.6621 15.7656V28H66.1172V10.5801ZM105.65 22.5156C105.65 21.6719 105.838 20.8867 106.213 20.1602C106.588 19.4336 107.127 18.8008 107.83 18.2617C108.533 17.7227 109.383 17.3008 110.379 16.9961C111.375 16.6797 112.488 16.5215 113.719 16.5215C114.949 16.5215 116.098 16.668 117.164 16.9609C118.242 17.2422 119.145 17.6055 119.871 18.0508V17.9102C119.871 17.0898 119.777 16.3926 119.59 15.8184C119.414 15.2441 119.139 14.7754 118.764 14.4121C118.389 14.0488 117.908 13.7852 117.322 13.6211C116.748 13.457 116.068 13.375 115.283 13.375C114.568 13.375 113.83 13.4395 113.068 13.5684C112.307 13.6855 111.604 13.8613 110.959 14.0957L109.676 11.7227C110.953 11.1953 112.271 10.8203 113.631 10.5977C115.002 10.3633 116.414 10.2461 117.867 10.2461C119.73 10.2461 121.377 10.4277 122.807 10.791C124.248 11.1426 125.455 11.6758 126.428 12.3906C127.412 13.0938 128.156 13.9844 128.66 15.0625C129.164 16.1289 129.416 17.3828 129.416 18.8242V28H120.504L119.906 26.3125C119.555 26.582 119.139 26.8398 118.658 27.0859C118.178 27.332 117.65 27.5488 117.076 27.7363C116.502 27.9238 115.893 28.0703 115.248 28.1758C114.604 28.2812 113.93 28.334 113.227 28.334C112.078 28.334 111.035 28.1875 110.098 27.8945C109.172 27.5898 108.381 27.1797 107.725 26.6641C107.068 26.1484 106.559 25.5391 106.195 24.8359C105.832 24.1211 105.65 23.3477 105.65 22.5156ZM115.494 22.1465C115.494 22.7793 115.699 23.2949 116.109 23.6934C116.52 24.0801 117.07 24.2734 117.762 24.2734C118.137 24.2734 118.506 24.2148 118.869 24.0977C119.232 23.9688 119.566 23.7812 119.871 23.5352V20.5645C119.285 20.2129 118.641 20.0371 117.938 20.0371C117.141 20.0371 116.531 20.2363 116.109 20.6348C115.699 21.0215 115.494 21.5254 115.494 22.1465Z" fill="#FF9900"/>
</svg>
