<svg width="124" height="27" viewBox="0 0 124 27" fill="none" xmlns="http://www.w3.org/2000/svg">
<path d="M0.476562 26V1.39062H5.43359V21.0781H13.6953V26H0.476562ZM15.5586 20.5508V11.3398C15.582 10.1914 16.1094 9.06641 17.1406 7.96484C18.4062 6.65234 19.9531 5.98437 21.7812 5.96094V10.3906C21.1016 10.3906 20.6328 10.6836 20.375 11.2695C20.3047 11.4102 20.2695 11.5391 20.2695 11.6562V13.4141H25.5078V11.6914C25.4844 10.8242 24.875 10.3906 23.6797 10.3906V5.96094C25.3906 5.96094 26.8906 6.54687 28.1797 7.71875C29.3047 8.75 29.8789 9.94531 29.9023 11.3047V17.9492H20.2695V20.5508C20.4336 21.2305 20.9492 21.6055 21.8164 21.6758V26C19.6133 26 17.8672 25.0977 16.5781 23.293C15.8984 22.332 15.5586 21.418 15.5586 20.5508ZM23.6797 26V21.7109C24.9453 21.6875 25.7539 21.0898 26.1055 19.918L29.9375 21.3594C29.5859 22.8594 28.6953 24.0664 27.2656 24.9805C26.1641 25.6602 24.9688 26 23.6797 26ZM32.6094 26V11.4102C32.6094 10.2383 33.125 9.10156 34.1562 8C35.4688 6.64063 37.0742 5.94922 38.9727 5.92578V10.6016C38.0352 10.7422 37.5078 11.2109 37.3906 12.0078V26H32.6094ZM40.5898 10.6016V5.92578C42.1836 5.94922 43.543 6.38281 44.668 7.22656C45.7461 6.35938 47.0938 5.92578 48.7109 5.92578V10.6016C47.6328 10.625 47.082 11.0938 47.0586 12.0078V26H42.2773V12.0078C42.2305 11.0938 41.668 10.625 40.5898 10.6016ZM50.293 10.6016V5.92578C52.5664 5.92578 54.3594 6.82812 55.6719 8.63281C56.375 9.61719 56.7266 10.543 56.7266 11.4102V26H51.9453V12.0078C51.8984 11.0938 51.3477 10.625 50.293 10.6016ZM59.3984 20.5508V11.375C59.3984 10.2266 59.9023 9.10156 60.9102 8C62.1758 6.66406 63.7812 5.98437 65.7266 5.96094V10.5312C64.6719 10.625 64.1094 11.0703 64.0391 11.8672V20.0586C64.0859 20.9727 64.6484 21.4414 65.7266 21.4648V26.0352C63.4297 26.0352 61.6484 25.1094 60.3828 23.2578C59.7266 22.2969 59.3984 21.3945 59.3984 20.5508ZM67.3438 26.0352V21.4648C68.3281 21.3477 68.8672 20.9023 68.9609 20.1289L68.9258 11.8672C68.7617 11.0234 68.2227 10.5781 67.3086 10.5312V5.96094C69.5117 5.96094 71.2344 6.85156 72.4766 8.63281C73.1328 9.59375 73.4609 10.5078 73.4609 11.375V20.5508C73.4609 21.7227 72.957 22.8711 71.9492 23.9961C70.7305 25.332 69.1953 26.0117 67.3438 26.0352ZM76.1328 26V11.4102C76.1328 10.2383 76.6602 9.08984 77.7148 7.96484C79.0039 6.62891 80.6094 5.94922 82.5312 5.92578V10.6016C81.5469 10.7188 81.0078 11.1758 80.9141 11.9727V26H76.1328ZM84.1484 10.6016V5.92578C86.4219 5.92578 88.2148 6.82812 89.5273 8.63281C90.2305 9.61719 90.582 10.543 90.582 11.4102V26H85.8008V11.9727C85.8008 11.1992 85.3672 10.7539 84.5 10.6367C84.3828 10.6133 84.2656 10.6016 84.1484 10.6016ZM92.9727 20.5508V11.4102C92.9961 10.3086 93.4766 9.20703 94.4141 8.10547C95.5859 6.76953 97.0391 6.08984 98.7734 6.06641H99.9336V10.6016H98.7734C98.0938 10.6719 97.6836 11 97.543 11.5859V20.4805C97.543 20.7383 97.707 20.9844 98.0352 21.2188C98.2695 21.3594 98.5391 21.4297 98.8438 21.4297H99.9336V26H98.8438C96.7109 26 95.0469 25.0508 93.8516 23.1523C93.2656 22.2148 92.9727 21.3477 92.9727 20.5508ZM101.797 26V0.828125H106.684L106.648 26H101.797ZM109.004 21.3594V19.5664C109.027 18.0664 109.66 16.9062 110.902 16.0859C111.207 15.9219 112.438 15.4648 114.594 14.7148C117.102 13.8711 118.355 13.1211 118.355 12.4648V11.6562C118.332 10.8125 117.816 10.3555 116.809 10.2852V5.96094C118.566 5.96094 120.043 6.55859 121.238 7.75391C122.316 8.85547 122.855 10.0508 122.855 11.3398V20.5156C122.879 21.2188 123.207 21.5938 123.84 21.6406V26C122.41 26 121.262 25.625 120.395 24.875C119.48 25.6016 118.297 25.9766 116.844 26V21.6758C117.031 21.6758 117.207 21.6523 117.371 21.6055C118.027 21.418 118.355 20.9727 118.355 20.2695V17.3867C117.723 17.7617 116.492 18.207 114.664 18.7227C113.914 18.9102 113.48 19.0391 113.363 19.1094C113.082 19.25 112.93 19.5195 112.906 19.918V20.4102C112.906 20.5508 112.918 20.6914 112.941 20.832C113.082 21.3945 113.75 21.6758 114.945 21.6758V26C113.375 26 112.039 25.6016 110.938 24.8047C109.648 23.8672 109.004 22.7188 109.004 21.3594ZM109.25 10.9883C109.273 9.79297 109.766 8.70312 110.727 7.71875C111.945 6.54687 113.363 5.96094 114.98 5.96094V10.2852C113.902 10.3086 113.352 11.0586 113.328 12.5352L109.25 10.9883Z" fill="#0D0C54"/>
</svg>
