<svg width="95" height="21" viewBox="0 0 95 21" fill="none" xmlns="http://www.w3.org/2000/svg">
<path d="M0.0787969 20V16.652L11.5268 2.792L12.1748 4.196H0.618797V0.524H15.7748V3.836L4.4708 17.732L3.8228 16.292H15.8108V20H0.0787969ZM28.1841 20.432C26.3121 20.432 24.5961 19.988 23.0361 19.1C21.5001 18.212 20.2761 17 19.3641 15.464C18.4521 13.928 17.9961 12.188 17.9961 10.244C17.9961 8.276 18.4521 6.536 19.3641 5.024C20.2761 3.488 21.5001 2.288 23.0361 1.424C24.5721 0.535999 26.2881 0.0919988 28.1841 0.0919988C30.1041 0.0919988 31.8201 0.535999 33.3321 1.424C34.8681 2.288 36.0801 3.488 36.9681 5.024C37.8801 6.536 38.3361 8.276 38.3361 10.244C38.3361 12.212 37.8801 13.964 36.9681 15.5C36.0561 17.036 34.8321 18.248 33.2961 19.136C31.7601 20 30.0561 20.432 28.1841 20.432ZM28.1841 16.652C29.3361 16.652 30.3561 16.376 31.2441 15.824C32.1321 15.272 32.8281 14.516 33.3321 13.556C33.8601 12.572 34.1241 11.468 34.1241 10.244C34.1241 9.02 33.8601 7.928 33.3321 6.968C32.8281 6.008 32.1321 5.252 31.2441 4.7C30.3561 4.148 29.3361 3.872 28.1841 3.872C27.0561 3.872 26.0361 4.148 25.1241 4.7C24.2361 5.252 23.5281 6.008 23.0001 6.968C22.4961 7.928 22.2441 9.02 22.2441 10.244C22.2441 11.468 22.4961 12.572 23.0001 13.556C23.5281 14.516 24.2361 15.272 25.1241 15.824C26.0361 16.376 27.0561 16.652 28.1841 16.652ZM51.7036 20.432C49.8316 20.432 48.1156 19.988 46.5556 19.1C45.0196 18.212 43.7956 17 42.8836 15.464C41.9716 13.928 41.5156 12.188 41.5156 10.244C41.5156 8.276 41.9716 6.536 42.8836 5.024C43.7956 3.488 45.0196 2.288 46.5556 1.424C48.0916 0.535999 49.8076 0.0919988 51.7036 0.0919988C53.6236 0.0919988 55.3396 0.535999 56.8516 1.424C58.3876 2.288 59.5996 3.488 60.4876 5.024C61.3996 6.536 61.8556 8.276 61.8556 10.244C61.8556 12.212 61.3996 13.964 60.4876 15.5C59.5756 17.036 58.3516 18.248 56.8156 19.136C55.2796 20 53.5756 20.432 51.7036 20.432ZM51.7036 16.652C52.8556 16.652 53.8756 16.376 54.7636 15.824C55.6516 15.272 56.3476 14.516 56.8516 13.556C57.3796 12.572 57.6436 11.468 57.6436 10.244C57.6436 9.02 57.3796 7.928 56.8516 6.968C56.3476 6.008 55.6516 5.252 54.7636 4.7C53.8756 4.148 52.8556 3.872 51.7036 3.872C50.5756 3.872 49.5556 4.148 48.6436 4.7C47.7556 5.252 47.0476 6.008 46.5196 6.968C46.0156 7.928 45.7636 9.02 45.7636 10.244C45.7636 11.468 46.0156 12.572 46.5196 13.556C47.0476 14.516 47.7556 15.272 48.6436 15.824C49.5556 16.376 50.5756 16.652 51.7036 16.652ZM65.8272 20V0.524H69.7152V4.736L69.2112 4.088C69.6192 2.768 70.3632 1.772 71.4432 1.1C72.5232 0.427999 73.7592 0.0919988 75.1512 0.0919988C76.7112 0.0919988 78.0912 0.511999 79.2912 1.352C80.5152 2.168 81.3312 3.26 81.7392 4.628L80.5872 4.736C81.1632 3.176 82.0392 2.012 83.2152 1.244C84.4152 0.475999 85.7832 0.0919988 87.3192 0.0919988C88.6632 0.0919988 89.8752 0.403999 90.9552 1.028C92.0592 1.652 92.9352 2.516 93.5832 3.62C94.2312 4.724 94.5552 5.984 94.5552 7.4V20H90.4872V8.516C90.4872 7.532 90.3072 6.704 89.9472 6.032C89.6112 5.336 89.1312 4.808 88.5072 4.448C87.9072 4.064 87.1992 3.872 86.3832 3.872C85.5672 3.872 84.8472 4.064 84.2232 4.448C83.5992 4.808 83.1072 5.336 82.7472 6.032C82.3872 6.728 82.2072 7.556 82.2072 8.516V20H78.1752V8.516C78.1752 7.532 77.9952 6.704 77.6352 6.032C77.2992 5.336 76.8192 4.808 76.1952 4.448C75.5952 4.064 74.8752 3.872 74.0352 3.872C73.2192 3.872 72.4992 4.064 71.8752 4.448C71.2512 4.808 70.7592 5.336 70.3992 6.032C70.0632 6.728 69.8952 7.556 69.8952 8.516V20H65.8272Z" fill="#3D66FB"/>
</svg>
