<svg width="195" height="39" viewBox="0 0 195 39" fill="none" xmlns="http://www.w3.org/2000/svg">
<path d="M78.6914 19.8887C80.9297 20.8145 82.0488 22.4727 82.0488 24.8633C82.0488 27.0547 81.2812 28.7773 79.7461 30.0312C78.1406 31.3438 75.8613 32 72.9082 32H71.291V8.07617H72.6445C75.5273 8.07617 77.7305 8.79688 79.2539 10.2383C80.6484 11.5508 81.3457 13.2559 81.3457 15.3535C81.3457 17.4395 80.4785 18.9512 78.7441 19.8887H78.6914ZM58.916 8.07617H68.373V31.9648H58.916V8.07617ZM108.451 15.5117C108.451 19.0508 106.904 21.377 103.811 22.4902C105.545 23.1348 106.852 24.1836 107.73 25.6367C108.492 26.9258 108.873 28.4258 108.873 30.1367V32H98.3965V8.04102H99.3105C102.404 8.04102 104.684 8.62695 106.148 9.79883C107.684 11.0293 108.451 12.9336 108.451 15.5117ZM86.0215 8.07617H95.4785V32H86.0215V8.07617ZM125.836 8.05859H135.609V32H125.836V8.05859ZM113.215 8.05859H122.936V32H121.354C117.041 32 114.469 30.5352 113.637 27.6055C113.355 26.6562 113.215 25.5605 113.215 24.3184V8.05859ZM152.748 8.07617H162.504V14.7207H160.676C157.5 14.7207 155.332 14.2227 154.172 13.2266C153.223 12.4062 152.748 11.082 152.748 9.25391V8.07617ZM140.25 8.07617H149.707V17.709H156.756V22.2969H149.707V31.9648H140.25V8.07617ZM179.959 8.07617H181.541C185.854 8.07617 188.426 9.53516 189.258 12.4531C189.539 13.4141 189.68 14.5156 189.68 15.7578V32H179.959V8.07617ZM166.986 15.7578C166.986 13.168 167.578 11.2695 168.762 10.0625C170.062 8.73828 172.184 8.07617 175.125 8.07617H176.707V32H166.986V15.7578Z" fill="#0D0C54"/>
<g clip-path="url(#clip0_138_28500)">
<path d="M0.000373184 22.2542L0.0975403 8.0732C0.11513 5.50617 1.96583 3.30707 4.52208 2.81574L18.6435 0.101498C22.037 -0.550756 25.186 2.02401 25.1627 5.43181L25.0654 19.6127C25.0479 22.1798 23.1972 24.3789 20.641 24.8703L6.51953 27.5845C3.12605 28.2367 -0.0229766 25.662 0.000373184 22.2542Z" fill="#0D0C54"/>
<path d="M6.91883 27.9092L7.01599 13.7282C7.03359 11.1612 8.88428 8.9621 11.4405 8.47077L25.562 5.75653C28.9555 5.10428 32.1045 7.67904 32.0811 11.0868L31.9839 25.2679C31.9664 27.8349 30.1156 30.034 27.5594 30.5253L13.438 33.2396C10.0445 33.8918 6.89548 31.317 6.91883 27.9092Z" fill="#FAD133"/>
<path d="M13.8375 33.5694L13.9348 19.3884C13.9523 16.8213 15.803 14.6223 18.3592 14.1309L32.4806 11.4167C35.8741 10.7644 39.0232 13.3392 38.9998 16.747L38.9027 30.9279C38.885 33.495 37.0344 35.6941 34.4782 36.1855L20.3567 38.8997C16.9633 39.5519 13.8143 36.9772 13.8375 33.5694Z" fill="#FA6333"/>
</g>
<defs>
<clipPath id="clip0_138_28500">
<rect width="39" height="39" fill="white"/>
</clipPath>
</defs>
</svg>
