<svg width="222" height="45" viewBox="0 0 222 45" fill="none" xmlns="http://www.w3.org/2000/svg">
<path d="M72.612 37V33.76L86.364 13.96H73.404V10.18H91.8V13.384L78.048 33.22H92.124V37H72.612ZM104.262 37.432C102.318 37.432 100.59 36.988 99.0782 36.1C97.5902 35.188 96.4262 33.964 95.5862 32.428C94.7462 30.868 94.3262 29.128 94.3262 27.208C94.3262 25.24 94.7462 23.5 95.5862 21.988C96.4502 20.476 97.6022 19.288 99.0422 18.424C100.482 17.536 102.114 17.092 103.938 17.092C105.402 17.092 106.71 17.344 107.862 17.848C109.014 18.352 109.986 19.048 110.778 19.936C111.57 20.8 112.17 21.796 112.578 22.924C113.01 24.052 113.226 25.252 113.226 26.524C113.226 26.836 113.214 27.16 113.19 27.496C113.166 27.832 113.118 28.144 113.046 28.432H97.5302V25.192H110.742L108.798 26.668C109.038 25.492 108.954 24.448 108.546 23.536C108.162 22.6 107.562 21.868 106.746 21.34C105.954 20.788 105.018 20.512 103.938 20.512C102.858 20.512 101.898 20.788 101.058 21.34C100.218 21.868 99.5702 22.636 99.1142 23.644C98.6582 24.628 98.4782 25.828 98.5742 27.244C98.4542 28.564 98.6342 29.716 99.1142 30.7C99.6182 31.684 100.314 32.452 101.202 33.004C102.114 33.556 103.146 33.832 104.298 33.832C105.474 33.832 106.47 33.568 107.286 33.04C108.126 32.512 108.786 31.828 109.266 30.988L112.578 32.608C112.194 33.52 111.594 34.348 110.778 35.092C109.986 35.812 109.026 36.388 107.898 36.82C106.794 37.228 105.582 37.432 104.262 37.432ZM117.196 37V17.524H121.084V21.34L120.616 20.836C121.096 19.612 121.864 18.688 122.92 18.064C123.976 17.416 125.2 17.092 126.592 17.092C128.032 17.092 129.304 17.404 130.408 18.028C131.512 18.652 132.376 19.516 133 20.62C133.624 21.724 133.936 22.996 133.936 24.436V37H129.904V25.516C129.904 24.532 129.724 23.704 129.364 23.032C129.004 22.336 128.488 21.808 127.816 21.448C127.168 21.064 126.424 20.872 125.584 20.872C124.744 20.872 123.988 21.064 123.316 21.448C122.668 21.808 122.164 22.336 121.804 23.032C121.444 23.728 121.264 24.556 121.264 25.516V37H117.196ZM147.29 37.432C145.418 37.432 143.738 36.988 142.25 36.1C140.786 35.188 139.622 33.964 138.758 32.428C137.918 30.892 137.498 29.164 137.498 27.244C137.498 25.324 137.93 23.596 138.794 22.06C139.658 20.524 140.822 19.312 142.286 18.424C143.75 17.536 145.406 17.092 147.254 17.092C148.814 17.092 150.194 17.404 151.394 18.028C152.594 18.652 153.542 19.516 154.238 20.62L153.626 21.556V9.748H157.658V37H153.806V33.04L154.274 33.796C153.602 34.972 152.642 35.872 151.394 36.496C150.146 37.12 148.778 37.432 147.29 37.432ZM147.686 33.652C148.814 33.652 149.822 33.376 150.71 32.824C151.622 32.272 152.33 31.516 152.834 30.556C153.362 29.572 153.626 28.468 153.626 27.244C153.626 26.02 153.362 24.928 152.834 23.968C152.33 23.008 151.622 22.252 150.71 21.7C149.822 21.148 148.814 20.872 147.686 20.872C146.558 20.872 145.538 21.148 144.626 21.7C143.714 22.252 143.006 23.008 142.502 23.968C141.998 24.928 141.746 26.02 141.746 27.244C141.746 28.468 141.998 29.572 142.502 30.556C143.006 31.516 143.702 32.272 144.59 32.824C145.502 33.376 146.534 33.652 147.686 33.652ZM171.551 37.432C169.607 37.432 167.879 36.988 166.367 36.1C164.879 35.188 163.715 33.964 162.875 32.428C162.035 30.868 161.615 29.128 161.615 27.208C161.615 25.24 162.035 23.5 162.875 21.988C163.739 20.476 164.891 19.288 166.331 18.424C167.771 17.536 169.403 17.092 171.227 17.092C172.691 17.092 173.999 17.344 175.151 17.848C176.303 18.352 177.275 19.048 178.067 19.936C178.859 20.8 179.459 21.796 179.867 22.924C180.299 24.052 180.515 25.252 180.515 26.524C180.515 26.836 180.503 27.16 180.479 27.496C180.455 27.832 180.407 28.144 180.335 28.432H164.819V25.192H178.031L176.087 26.668C176.327 25.492 176.243 24.448 175.835 23.536C175.451 22.6 174.851 21.868 174.035 21.34C173.243 20.788 172.307 20.512 171.227 20.512C170.147 20.512 169.187 20.788 168.347 21.34C167.507 21.868 166.859 22.636 166.403 23.644C165.947 24.628 165.767 25.828 165.863 27.244C165.743 28.564 165.923 29.716 166.403 30.7C166.907 31.684 167.603 32.452 168.491 33.004C169.403 33.556 170.435 33.832 171.587 33.832C172.763 33.832 173.759 33.568 174.575 33.04C175.415 32.512 176.075 31.828 176.555 30.988L179.867 32.608C179.483 33.52 178.883 34.348 178.067 35.092C177.275 35.812 176.315 36.388 175.187 36.82C174.083 37.228 172.871 37.432 171.551 37.432ZM191.685 37.432C189.693 37.432 187.941 36.94 186.429 35.956C184.941 34.972 183.897 33.652 183.297 31.996L186.429 30.52C186.957 31.624 187.677 32.5 188.589 33.148C189.525 33.796 190.557 34.12 191.685 34.12C192.645 34.12 193.425 33.904 194.025 33.472C194.625 33.04 194.925 32.452 194.925 31.708C194.925 31.228 194.793 30.844 194.529 30.556C194.265 30.244 193.929 29.992 193.521 29.8C193.137 29.608 192.741 29.464 192.333 29.368L189.273 28.504C187.593 28.024 186.333 27.304 185.493 26.344C184.677 25.36 184.269 24.22 184.269 22.924C184.269 21.748 184.569 20.728 185.169 19.864C185.769 18.976 186.597 18.292 187.653 17.812C188.709 17.332 189.897 17.092 191.217 17.092C192.993 17.092 194.577 17.536 195.969 18.424C197.361 19.288 198.345 20.5 198.921 22.06L195.789 23.536C195.405 22.6 194.793 21.856 193.953 21.304C193.137 20.752 192.213 20.476 191.181 20.476C190.293 20.476 189.585 20.692 189.057 21.124C188.529 21.532 188.265 22.072 188.265 22.744C188.265 23.2 188.385 23.584 188.625 23.896C188.865 24.184 189.177 24.424 189.561 24.616C189.945 24.784 190.341 24.928 190.749 25.048L193.917 25.984C195.525 26.44 196.761 27.16 197.625 28.144C198.489 29.104 198.921 30.256 198.921 31.6C198.921 32.752 198.609 33.772 197.985 34.66C197.385 35.524 196.545 36.208 195.465 36.712C194.385 37.192 193.125 37.432 191.685 37.432ZM202.907 37V9.748H206.975V28L205.391 27.604L215.147 17.524H220.223L212.879 25.336L220.547 37H215.867L209.027 26.668L211.439 26.344L205.679 32.464L206.975 29.764V37H202.907Z" fill="#0D0C54"/>
<g clip-path="url(#clip0_138_28545)">
<path d="M9.14488 28.3792C4.10382 28.3792 0 24.3564 0 19.4148C0 14.4732 4.10382 10.4503 9.14488 10.4503C14.1859 10.4503 18.2898 14.4732 18.2898 19.4148C18.2898 24.3564 14.1859 28.3792 9.14488 28.3792ZM9.14488 10.9002C4.35452 10.9002 0.45898 14.7189 0.45898 19.4148C0.45898 24.1106 4.35452 27.9293 9.14488 27.9293C13.9352 27.9293 17.8308 24.1106 17.8308 19.4148C17.8308 14.7189 13.9352 10.9002 9.14488 10.9002Z" fill="#232323"/>
<path d="M9.14499 27.0408C4.85604 27.0408 1.36548 23.6191 1.36548 19.4147C1.36548 15.2104 4.85604 11.7887 9.14499 11.7887C13.4339 11.7887 16.9245 15.2104 16.9245 19.4147C16.9245 23.6228 13.4339 27.0408 9.14499 27.0408ZM9.14499 12.2386C5.10674 12.2386 1.82446 15.4599 1.82446 19.4147C1.82446 23.3695 5.1106 26.5908 9.14499 26.5908C13.1832 26.5908 16.4655 23.3695 16.4655 19.4147C16.4655 15.4599 13.1832 12.2386 9.14499 12.2386Z" fill="#D91277"/>
<path d="M23.1573 24.9727C23.0146 24.9311 22.8796 24.8706 22.7446 24.7912L15.1734 20.292C15.2158 20.0046 15.2467 19.7135 15.2467 19.4148C15.2467 16.1103 12.5159 13.4335 9.14494 13.4335C5.77395 13.4335 3.04321 16.1103 3.04321 19.4148C3.04321 22.7193 5.77395 25.3962 9.14494 25.3962C10.9114 25.3962 12.4966 24.6551 13.6113 23.4793L23.489 27.7063C23.9981 27.0257 22.6251 25.6381 23.1573 24.9727Z" fill="#D91277"/>
<path d="M23.2152 26.0918C23.0763 25.744 16.0142 22.9008 12.7898 21.4225C11.7908 21.9253 10.7109 22.1597 9.55764 22.1181H9.43807C7.89914 22.1144 6.4682 21.7325 5.13755 20.9763C4.56286 20.5415 3.98817 20.1067 3.41348 19.6719C3.2862 19.5471 3.16664 19.4186 3.04707 19.29C3.04707 19.3316 3.04321 19.3732 3.04321 19.4186C3.04321 22.7231 5.77395 25.3999 9.14494 25.3999C10.9114 25.3999 12.4966 24.6589 13.6113 23.483L23.489 27.7063C23.7821 27.3093 23.4466 26.6817 23.2152 26.0918Z" fill="#C61074"/>
<path d="M39.5957 39.9336C38.3036 39.9336 37.0269 39.6047 35.8737 38.962C34.1265 37.9827 32.8691 36.3985 32.3368 34.493C31.8046 32.5912 32.063 30.5949 33.0619 28.8821C34.0609 27.1694 35.677 25.9368 37.6209 25.4151C41.6283 24.3413 45.7822 26.6628 46.8815 30.5911C47.9769 34.5194 45.6087 38.5914 41.6013 39.669C40.9379 39.8467 40.2629 39.9336 39.5957 39.9336ZM39.6072 25.6003C38.9901 25.6003 38.3653 25.6797 37.7404 25.8461C35.9161 26.3338 34.3965 27.4908 33.4592 29.1014C32.522 30.7121 32.2828 32.5836 32.7804 34.372C33.2779 36.1603 34.4582 37.65 36.1012 38.5687C37.7443 39.4875 39.6535 39.7219 41.4779 39.2342C45.2423 38.2247 47.4677 34.4022 46.4379 30.7083C45.5778 27.6307 42.7159 25.6003 39.6072 25.6003Z" fill="#232323"/>
<path d="M39.5994 38.497C38.5581 38.497 37.5282 38.2323 36.5987 37.7143C35.1909 36.9279 34.1765 35.6462 33.7484 34.1149C33.3203 32.5799 33.5286 30.9768 34.3308 29.5968C35.1331 28.2168 36.4367 27.2224 38.0027 26.8027C39.5647 26.383 41.2039 26.5872 42.6117 27.3736C44.0195 28.16 45.0339 29.4418 45.462 30.973C46.3453 34.1376 44.4361 37.4194 41.2078 38.2852C40.6794 38.4251 40.1356 38.497 39.5994 38.497ZM39.6187 27.0371C39.1212 27.0371 38.6198 27.1014 38.1299 27.2337C36.6836 27.6232 35.4763 28.5381 34.7358 29.8161C33.9914 31.094 33.8024 32.5761 34.1958 33.9939C35.0135 36.9203 38.1068 38.6482 41.0921 37.8504C44.0774 37.0489 45.8439 34.0166 45.0262 31.0902C44.6289 29.6724 43.6955 28.489 42.3919 27.7631C41.5318 27.2791 40.5791 27.0371 39.6187 27.0371Z" fill="#F7C210"/>
<path d="M44.0658 31.3473C43.3908 28.9351 40.853 27.5135 38.3884 28.1751C37.6247 28.3793 36.9574 28.7612 36.4213 29.264L26.0075 27.143C25.7568 27.09 25.5022 27.0825 25.2554 27.0976C25.5524 27.7706 25.8455 28.4474 26.127 29.1279C26.3083 29.1506 26.4896 29.1884 26.667 29.2678L35.0096 32.9277C35.0328 33.1999 35.0791 33.4721 35.1524 33.7406C35.8273 36.1528 38.3652 37.5744 40.8298 36.9127C43.2906 36.2511 44.7369 33.7595 44.0658 31.3473Z" fill="#F7C210"/>
<path d="M36.6026 31.3586C35.8466 31.1468 27.1761 28.7914 26.4048 28.5002C26.0846 28.4208 25.8648 28.3566 25.7876 28.315C25.5254 28.1789 26.0152 28.8519 26.1271 29.1203C26.3083 29.143 26.4896 29.1808 26.667 29.2602L35.0097 32.9201C35.0328 33.1923 35.0791 33.4645 35.1524 33.733C35.8273 36.1452 38.3652 37.5668 40.8298 36.9051C42.3996 36.4854 43.5528 35.3172 44.0118 33.9031C43.2829 34.3266 42.388 34.5761 41.3312 34.5761C38.7895 34.5837 37.4473 33.2604 36.6026 31.3586Z" fill="#EAB00F"/>
<path d="M39.2755 17.1009C34.4659 17.1009 30.551 13.2633 30.551 8.54856C30.551 3.83381 34.4659 0 39.2755 0C44.0851 0 48 3.83759 48 8.55234C48 13.2671 44.0851 17.1009 39.2755 17.1009ZM39.2755 0.449924C34.7166 0.449924 31.01 4.08335 31.01 8.55234C31.01 13.0213 34.7166 16.6548 39.2755 16.6548C43.8344 16.6548 47.541 13.0213 47.541 8.55234C47.541 4.08335 43.8306 0.449924 39.2755 0.449924Z" fill="#232323"/>
<path d="M39.2756 15.6718C35.2682 15.6718 32.009 12.4769 32.009 8.54859C32.009 4.62026 35.2682 1.42542 39.2756 1.42542C43.283 1.42542 46.5421 4.62026 46.5421 8.54859C46.5421 12.4769 43.283 15.6718 39.2756 15.6718ZM39.2756 1.87912C35.5227 1.87912 32.468 4.87358 32.468 8.55237C32.468 12.2312 35.5227 15.2256 39.2756 15.2256C43.0284 15.2256 46.0831 12.2312 46.0831 8.55237C46.0831 4.87358 43.0284 1.87912 39.2756 1.87912Z" fill="#2192CE"/>
<path d="M39.2754 3.02844C36.1667 3.02844 33.6442 5.50114 33.6442 8.54852C33.6442 9.45215 33.8679 10.3029 34.2613 11.0552L25.2939 24.2392C25.2823 24.2581 25.263 24.2694 25.2515 24.2883C25.6217 25.1957 25.992 26.0994 26.3507 27.0068L37.5938 13.8228C38.126 13.9854 38.6892 14.0724 39.2754 14.0724C42.3841 14.0724 44.9066 11.5997 44.9066 8.5523C44.9066 5.50492 42.3841 3.02844 39.2754 3.02844Z" fill="#2192CE"/>
<path d="M43.8265 5.30835C43.8188 6.28003 43.5951 7.19501 43.14 8.04949C42.816 9.02873 42.2606 9.87565 41.4738 10.594C40.7448 11.3653 39.877 11.9098 38.8781 12.2274C37.9177 12.7226 36.8801 12.9495 35.7732 12.9079H35.6536C34.8205 12.9041 25.6139 25.1617 25.7913 25.6003C25.9803 26.0691 26.1693 26.5342 26.3545 27.003L37.5975 13.8191C38.1298 13.9817 38.6929 14.0686 39.2792 14.0686C42.3879 14.0686 44.9104 11.5959 44.9104 8.54856C44.9065 7.33868 44.5015 6.21954 43.8265 5.30835Z" fill="#168BBF"/>
<path d="M16.0682 45C14.7414 45 13.457 44.5803 12.3809 43.7864C11.0657 42.8185 10.2172 41.4044 9.98962 39.8089C9.51521 36.5157 11.8641 33.457 15.2235 32.992C18.583 32.5269 21.7032 34.8295 22.1776 38.1226C22.4091 39.7181 21.9887 41.3061 21.0013 42.5954C20.0139 43.8809 18.5714 44.7165 16.9437 44.9395C16.6506 44.9773 16.3613 45 16.0682 45ZM16.0875 33.3776C15.8252 33.3776 15.5552 33.3965 15.2891 33.4343C12.1804 33.8653 10.005 36.6972 10.4447 39.7446C10.6569 41.2229 11.4437 42.5311 12.6586 43.4272C13.8736 44.3232 15.3701 44.7013 16.882 44.4934C18.3901 44.2854 19.7208 43.5141 20.6387 42.3232C21.5528 41.1322 21.9424 39.6614 21.7264 38.1831C21.3214 35.3966 18.8799 33.3776 16.0875 33.3776Z" fill="#F7C210"/>
<path d="M16.0721 44.0321C14.9574 44.0321 13.8813 43.6804 12.975 43.0112C11.8719 42.1983 11.1583 41.0111 10.9655 39.6727C10.7726 38.3343 11.1236 36.9996 11.9529 35.9183C12.7821 34.837 13.9932 34.1375 15.3586 33.9485C16.7239 33.7594 18.0854 34.1035 19.1885 34.9164C20.2916 35.7293 21.0052 36.9165 21.198 38.2549C21.3909 39.5971 21.0399 40.928 20.2106 42.0093C19.3814 43.0906 18.1703 43.7901 16.8049 43.9791C16.5619 44.0132 16.3151 44.0321 16.0721 44.0321ZM16.0914 34.3455C15.8715 34.3455 15.6478 34.3606 15.4241 34.3908C14.1783 34.5648 13.0752 35.1999 12.3193 36.1867C11.5633 37.1736 11.2432 38.3872 11.4206 39.6084C11.598 40.8297 12.246 41.911 13.2527 42.652C14.2593 43.3931 15.4974 43.7031 16.7432 43.533C17.989 43.3591 19.0921 42.7239 19.8481 41.7371C20.604 40.7503 20.9242 39.5366 20.7468 38.3154C20.5693 37.0942 19.9214 36.0128 18.9147 35.2718C18.0893 34.6668 17.1058 34.3455 16.0914 34.3455Z" fill="#232323"/>
<path d="M24.6114 30.9503C22.2857 30.9503 20.3958 29.0977 20.3958 26.8178C20.3958 24.5379 22.2857 22.6853 24.6114 22.6853C26.9372 22.6853 28.8271 24.5379 28.8271 26.8178C28.8309 29.0977 26.9372 30.9503 24.6114 30.9503ZM24.6114 23.1314C22.5402 23.1314 20.8509 24.7837 20.8509 26.8178C20.8509 28.8481 22.5364 30.5042 24.6114 30.5042C26.6826 30.5042 28.372 28.8519 28.372 26.8178C28.372 24.7875 26.6865 23.1314 24.6114 23.1314Z" fill="#232323"/>
<path d="M24.6114 23.7893C22.9066 23.7893 21.522 25.1466 21.522 26.8178C21.522 27.487 21.7457 28.1071 22.1237 28.6099C20.4189 30.7348 17.3217 34.5572 17.3217 34.5572C17.179 34.7349 16.9939 34.9164 16.7856 35.0941C16.3961 35.0336 15.9911 35.0261 15.5822 35.0828C13.3838 35.3853 11.8526 37.3816 12.1611 39.5367C12.4697 41.6918 14.5062 43.1928 16.7046 42.8903C18.9031 42.5878 20.4343 40.5915 20.1258 38.4364C20.0178 37.6916 19.7015 37.0299 19.2502 36.4893C19.3235 36.304 19.4006 36.1301 19.4894 35.9826L23.5816 29.6686C23.9056 29.782 24.2527 29.8463 24.6114 29.8463C26.3162 29.8463 27.7009 28.4889 27.7009 26.8178C27.7009 25.1466 26.3201 23.7893 24.6114 23.7893Z" fill="#232323"/>
<path d="M26.9872 26.7232C26.3277 27.366 25.5486 27.8121 24.6538 28.0579C24.3606 28.0957 24.0675 28.1335 23.7744 28.1751C22.5286 29.6156 17.098 36.8787 17.2947 37.4685C17.6264 38.0848 17.7768 38.754 17.7498 39.4648V39.5253C17.7459 40.4629 17.5068 41.3325 17.0285 42.1416C16.8241 42.4025 16.6197 42.6596 16.4153 42.9205C16.5117 42.9129 16.6081 42.9092 16.7046 42.894C18.903 42.5916 20.4342 40.5953 20.1257 38.4402C20.0177 37.6953 19.7014 37.0337 19.2502 36.493C19.3234 36.3078 19.4006 36.1338 19.4893 35.9864L23.5815 29.6723C23.9055 29.7857 24.2526 29.85 24.6113 29.85C26.3161 29.85 27.7008 28.4927 27.7008 26.8215C27.7008 26.5304 27.6468 26.2544 27.5696 25.986C27.3768 26.2279 27.1801 26.4737 26.9872 26.7232Z" fill="black"/>
</g>
<defs>
<clipPath id="clip0_138_28545">
<rect width="48" height="45" fill="white"/>
</clipPath>
</defs>
</svg>
