<svg width="105" height="128" viewBox="0 0 105 128" fill="none" xmlns="http://www.w3.org/2000/svg">
<rect width="105" height="128" rx="52.5" fill="white" fill-opacity="0.34"/>
<g clip-path="url(#clip0_104_4966)">
<path d="M24.0005 70.9548L24.14 50.5923C24.1653 46.9063 26.8227 43.7486 30.4932 43.0431L50.7701 39.1457C55.6428 38.2092 60.1644 41.9063 60.131 46.7995L59.9913 67.1619C59.9661 70.8479 57.3088 74.0056 53.6383 74.7112L33.3613 78.6085C28.4886 79.545 23.967 75.848 24.0005 70.9548Z" fill="#0D0C54"/>
<path d="M33.9348 79.0747L34.0743 58.7123C34.0995 55.0263 36.7569 51.8686 40.4274 51.1631L60.7044 47.2657C65.5771 46.3292 70.0988 50.0263 70.0652 54.9195L69.9257 75.282C69.9005 78.968 67.2429 82.1257 63.5725 82.8311L43.2956 86.7286C38.4229 87.6651 33.9012 83.9679 33.9348 79.0747Z" fill="#FAD133"/>
<path d="M43.8693 87.2022L44.009 66.8398C44.0342 63.1536 46.6915 59.9961 50.362 59.2905L70.6389 55.3932C75.5116 54.4566 80.0334 58.1537 79.9998 63.0469L79.8603 83.4094C79.835 87.0953 77.1776 90.2531 73.5072 90.9587L53.2302 94.8559C48.3575 95.7925 43.8359 92.0955 43.8693 87.2022Z" fill="#FA6333"/>
</g>
<defs>
<clipPath id="clip0_104_4966">
<rect width="56" height="56" fill="white" transform="translate(24 39)"/>
</clipPath>
</defs>
</svg>
